<svg width="29" height="29" viewBox="0 0 29 29" fill="none" xmlns="http://www.w3.org/2000/svg">
<g clip-path="url(#clip0_1_1383)">
<path fill-rule="evenodd" clip-rule="evenodd" d="M13.2428 7.53953C10.0487 7.53953 7.45944 10.1288 7.45944 13.3229C7.45944 16.5169 10.0487 19.1062 13.2428 19.1062C16.4368 19.1062 19.0261 16.5169 19.0261 13.3229C19.0261 10.1288 16.4368 7.53953 13.2428 7.53953ZM5.14611 13.3229C5.14611 8.8512 8.77111 5.2262 13.2428 5.2262C17.7144 5.2262 21.3394 8.8512 21.3394 13.3229C21.3394 17.7945 17.7144 21.4195 13.2428 21.4195C8.77111 21.4195 5.14611 17.7945 5.14611 13.3229Z" fill="#8E8E8E"/>
<path fill-rule="evenodd" clip-rule="evenodd" d="M18.2082 18.2883C18.6599 17.8366 19.3923 17.8366 19.844 18.2883L23.314 21.7583C23.7657 22.21 23.7657 22.9424 23.314 23.3941C22.8623 23.8458 22.1299 23.8458 21.6782 23.3941L18.2082 19.9241C17.7565 19.4724 17.7565 18.74 18.2082 18.2883Z" fill="#8E8E8E"/>
</g>
<defs>
<clipPath id="clip0_1_1383">
<rect width="27.76" height="27.76" fill="white" transform="translate(0.519444 0.599518)"/>
</clipPath>
</defs>
</svg>
